<svg xmlns="http://www.w3.org/2000/svg" width="124" height="119" fill="none" viewBox="0 0 124 119"><path fill="#FF4B00" fill-rule="evenodd" d="M8.57667 69.0993C7.92739 69.5801 7.52105 70.2402 7.08373 71.0094C8.51712 70.9942 7.82832 69.5023 8.57667 69.0993ZM93.909 61.774C95.2945 61.8971 96.633 61.7283 97.9107 61.1979C96.5772 61.39 95.2431 61.582 93.909 61.774ZM85.7532 56.5645C88.1981 56.9049 90.6403 57.0945 93.0645 56.4044C90.6278 56.4781 88.1892 56.4523 85.7532 56.5645ZM44.3111 49.4C35.5808 49.3341 18.8495 58.1927 13.0783 64.6477C17.9108 61.1646 22.6201 57.7834 27.7853 55.1199C33.0141 52.424 38.4476 50.2955 44.3111 49.4ZM27.6927 59.9499C26.0414 60.3053 24.6496 61.2473 23.2743 62.1175C19.6262 64.4252 16.0825 66.9029 13.0011 69.9548C10.437 72.4945 7.7882 74.9553 5.4794 77.7443C4.66644 78.726 4.64524 78.7049 3.71525 77.8924C3.64726 77.833 3.5298 77.8203 3.4325 77.8048C2.5343 77.6672 2.10072 76.7826 2.54105 75.9276C3.85171 73.3815 5.58027 71.1168 7.35347 68.8874C10.4841 64.9509 14.238 61.6672 18.3232 58.7805C20.7954 57.0334 23.3799 55.4357 26.0686 54.0193C30.5083 51.6811 35.0027 49.4888 39.9726 48.4962C46.563 47.1801 53.1462 47.138 59.7579 48.4484C65.9046 49.6661 71.7327 52.0022 77.7839 53.4936C89.9114 56.4825 100.977 54.6234 109.992 45.2479C111.864 43.3014 113.477 41.1078 115.234 39.0506C115.935 38.2298 116.805 37.7673 117.937 38.1299C118.931 38.4482 119.51 39.6044 119.565 41.1684C119.626 42.9075 118.939 44.4075 118.097 45.8237C116.268 48.8989 114.137 51.7502 111.58 54.2772C105.829 59.9584 98.9708 62.734 90.8486 62.5991C84.0766 62.4861 77.7066 60.872 71.5056 58.2662C67.1347 56.4292 62.5117 55.3931 57.8917 54.3741C54.3494 53.5927 50.7554 53.5587 47.1729 53.6623C45.249 53.7179 43.301 54.0364 41.4517 54.7063C41.2472 54.7797 41.0126 54.7683 40.8018 54.7955C40.6289 54.4172 41.1565 54.5882 41.1044 54.3062C38.8818 54.4986 36.907 55.5301 34.8146 56.1558C34.4056 56.2779 34.4989 56.1505 34.0026 55.8821C33.5378 55.6307 32.8931 55.8194 32.485 56.4397C32.9366 56.5215 33.235 56.1059 33.7865 56.3997C32.9758 57.1067 32.0382 57.415 31.2018 57.8764C30.0912 58.4888 28.8339 58.8464 27.904 59.773C27.8337 59.8324 27.7629 59.8911 27.6927 59.9499Z" clip-rule="evenodd"/><path fill="#FF4B00" fill-rule="evenodd" d="M65.0581 30.0239C64.4153 29.2903 63.7536 28.5709 63.1356 27.8166C62.7422 27.3369 62.6176 26.7307 62.5885 26.125C62.5702 25.7402 62.7009 25.3734 63.0842 25.1791C63.5892 24.9239 63.5123 25.412 63.7123 25.625C67.5777 29.7481 71.9011 33.3768 76.147 37.0906C77.1307 37.9512 78.0139 38.9346 78.8767 39.92C79.1464 40.2284 79.637 40.6576 79.0929 41.1817C78.6302 41.6273 78.1933 41.4115 77.7704 41.1306C75.5746 39.671 73.6415 37.8821 71.6317 36.1924C69.3307 34.2583 67.2031 32.1344 65.0581 30.0239Z" clip-rule="evenodd"/><path fill="#FF4B00" fill-rule="evenodd" d="M93.8032 43.7556C93.5107 43.2018 93.3133 42.4881 93.5491 41.7975C94.6898 38.4553 95.9755 35.1666 97.4651 31.9637C97.8578 31.119 97.9399 31.4529 98.7171 31.8628C100.616 32.864 99.7271 34.2618 99.4946 35.5482C99.0837 37.8203 98.25 39.9535 97.1105 41.9652C96.8138 42.4884 96.5376 43.0234 96.2645 43.559C95.5071 45.0421 95.0768 45.0947 93.8032 43.7556Z" clip-rule="evenodd"/><path fill="#FF4B00" fill-rule="evenodd" d="M88.2909 42.3513C86.5215 41.7744 86.3032 40.2783 85.876 38.8512C85.0736 36.1724 84.8102 33.4073 84.3958 30.6649C84.3207 30.1669 84.0967 29.4368 84.6187 29.2361C85.1297 29.0394 85.5528 29.6831 85.913 30.0779C86.4469 30.662 86.5078 31.4594 86.6543 32.1765C87.2706 35.184 87.8159 38.2066 88.3757 41.2257C88.4421 41.5817 88.5393 41.9586 88.2909 42.3513Z" clip-rule="evenodd"/></svg>