<svg width="600" height="419" viewBox="0 0 600 419" fill="none" xmlns="http://www.w3.org/2000/svg">
<g clip-path="url(#clip0_58_12)">
<path d="M0.204471 36.2758C2.15484 52.8487 15.8336 65.9717 19.079 82.3401C19.4858 84.486 19.7346 86.659 19.8235 88.8413C20.2901 98.2419 18.4289 107.836 19.3883 117.253C21.1762 134.911 31.9084 148.71 45.5348 160.669C55.8424 169.692 67.8067 177.63 78.8116 185.311C106.83 204.883 133.107 229.593 144.616 261.774C152.286 283.233 152.873 306.554 158.504 328.637C164.135 350.72 176.959 373.317 198.633 380.358C221.896 387.919 247.529 375.315 271.468 380.295C297.158 385.643 315.377 409.923 340.727 416.781C372.934 425.495 405.031 404.083 438.093 399.621C453.969 397.476 470.128 399.296 486.087 397.922C503.853 396.377 521.055 390.912 536.456 381.921C541.699 378.843 546.999 375.063 549.437 369.474C551.534 364.645 551.215 359.14 550.57 353.913C548.158 334.514 542.055 313.427 551.655 296.377C560.51 280.648 581.97 269.397 578.787 251.639C576.873 240.949 566.367 234.275 556.625 229.488C536.534 219.616 515.133 211.887 497.176 198.555C484.331 189.002 473.268 175.675 468.549 160.685C466.615 154.692 465.818 148.39 466.201 142.104C466.861 132.195 470.29 121.07 464.313 113.137C461.723 109.698 457.754 107.585 453.764 105.97C438.717 99.8882 422.003 99.5369 406.358 95.2167C400.994 93.7524 395.839 91.61 391.017 88.8413C381.475 83.3153 373.794 75.173 371.938 64.5456C370.853 58.317 371.818 51.5169 368.708 46.0119C363.466 36.6795 353.1 32.7787 341.524 31.51C327.195 29.9371 310.968 32.396 300.105 33.6071L299.02 33.7225C285.068 35.1748 271.232 32.0867 257.637 27.431C242.957 22.4449 228.607 15.6606 214.645 10.8371C213.334 10.3827 212.027 9.94757 210.723 9.53163C200.532 6.28384 190.096 3.85563 179.518 2.27018C164.599 0.0245298 149.476 -0.559257 134.429 0.529531C126.797 1.07941 119.203 2.0667 111.685 3.48654C109.476 3.90597 107.27 4.35512 105.068 4.83397C92.2649 7.57602 79.5299 10.9262 66.4698 11.1255C65.5313 11.1255 64.5875 11.1255 63.6491 11.1255C48.0723 10.8581 32.1443 6.89968 17.3646 11.6812C10.6431 13.8675 4.19958 18.1667 1.49423 24.6889C-0.0104896 28.3223 -0.251664 32.375 0.204471 36.2758Z" fill="#FF4B00"/>
<path opacity="0.2" d="M19.8235 88.8413H33.2821C33.4829 85.3616 34.6994 82.0171 36.7811 79.2215C38.8629 76.426 41.7185 74.3021 44.9948 73.1125C42.5491 71.7661 40.6206 69.6444 39.513 67.0817C38.4054 64.5189 38.1816 61.6606 38.8767 58.9567C39.5718 56.2527 41.1465 53.8568 43.3528 52.146C45.559 50.4352 48.2716 49.5067 51.0634 49.5067C53.8553 49.5067 56.5679 50.4352 58.7741 52.146C60.9804 53.8568 62.555 56.2527 63.2502 58.9567C63.9453 61.6606 63.7215 64.5189 62.6139 67.0817C61.5063 69.6444 59.5778 71.7661 57.1321 73.1125C60.4084 74.3021 63.264 76.426 65.3457 79.2215C67.4275 82.0171 68.644 85.3616 68.8448 88.8413H68.9602C69.2562 85.4574 70.513 82.2285 72.5825 79.5348C74.6519 76.8411 77.448 74.7948 80.6414 73.6368C78.7827 72.6136 77.2129 71.1371 76.078 69.3444C74.9431 67.5518 74.2799 65.5013 74.1501 63.3835C74.0203 61.2658 74.4281 59.1497 75.3356 57.2318C76.243 55.314 77.6207 53.6568 79.3405 52.4142C81.0603 51.1717 83.0664 50.3842 85.1722 50.125C87.278 49.8657 89.4151 50.1432 91.3849 50.9315C93.3547 51.7199 95.0932 52.9935 96.4387 54.634C97.7842 56.2745 98.6931 58.2286 99.0807 60.3146C100.623 59.0562 102.365 58.0655 104.235 57.3838C101.789 56.0373 99.8604 53.9157 98.7528 51.3529C97.6452 48.7902 97.4213 45.9318 98.1165 43.2279C98.8116 40.524 100.386 38.128 102.593 36.4172C104.799 34.7064 107.511 33.7779 110.303 33.7779C113.095 33.7779 115.808 34.7064 118.014 36.4172C120.22 38.128 121.795 40.524 122.49 43.2279C123.185 45.9318 122.961 48.7902 121.854 51.3529C120.746 53.9157 118.818 56.0373 116.372 57.3838C119.819 58.6323 122.796 60.9131 124.9 63.9153C127.003 66.9176 128.13 70.4953 128.127 74.1611V88.8413H133.894V77.3069C133.89 73.6411 135.017 70.0633 137.12 67.0611C139.224 64.0588 142.202 61.7781 145.648 60.5295C143.203 59.183 141.274 57.0614 140.167 54.4987C139.059 51.9359 138.835 49.0776 139.53 46.3737C140.225 43.6697 141.8 41.2738 144.006 39.563C146.213 37.8522 148.925 36.9237 151.717 36.9237C154.509 36.9237 157.221 37.8522 159.428 39.563C161.634 41.2738 163.209 43.6697 163.904 46.3737C164.599 49.0776 164.375 51.9359 163.267 54.4987C162.16 57.0614 160.231 59.183 157.786 60.5295C160.065 61.3597 162.151 62.6449 163.918 64.3069C165.684 65.969 167.094 67.9732 168.062 70.1975C170.171 67.1996 173.151 64.9227 176.597 63.6753C174.152 62.3288 172.223 60.2072 171.116 57.6444C170.008 55.0817 169.784 52.2234 170.479 49.5194C171.174 46.8155 172.749 44.4195 174.955 42.7087C177.162 40.9979 179.874 40.0694 182.666 40.0694C185.458 40.0694 188.17 40.9979 190.377 42.7087C192.583 44.4195 194.158 46.8155 194.853 49.5194C195.548 52.2234 195.324 55.0817 194.216 57.6444C193.109 60.2072 191.18 62.3288 188.735 63.6753C192.535 65.058 195.755 67.6879 197.868 71.136V68.9182C197.864 65.2524 198.991 61.6747 201.095 58.6724C203.198 55.6701 206.176 53.3894 209.622 52.1409C207.177 50.7944 205.248 48.6728 204.141 46.11C203.033 43.5473 202.809 40.6889 203.504 37.985C204.2 35.2811 205.774 32.8851 207.98 31.1743C210.187 29.4635 212.899 28.535 215.691 28.535C218.483 28.535 221.196 29.4635 223.402 31.1743C225.608 32.8851 227.183 35.2811 227.878 37.985C228.573 40.6889 228.349 43.5473 227.242 46.11C226.134 48.6728 224.206 50.7944 221.76 52.1409C225.206 53.3894 228.184 55.6701 230.288 58.6724C232.391 61.6747 233.518 65.2524 233.514 68.9182V88.8413H239.806C240.786 86.6702 242.19 84.7169 243.936 83.0962C245.682 81.4756 247.734 80.2203 249.972 79.404C247.526 78.0576 245.598 75.9359 244.49 73.3732C243.383 70.8104 243.159 67.9521 243.854 65.2482C244.549 62.5443 246.124 60.1483 248.33 58.4375C250.536 56.7267 253.249 55.7982 256.041 55.7982C258.833 55.7982 261.545 56.7267 263.751 58.4375C265.958 60.1483 267.532 62.5443 268.227 65.2482C268.923 67.9521 268.699 70.8104 267.591 73.3732C266.484 75.9359 264.555 78.0576 262.109 79.404C263.353 79.8557 264.541 80.4448 265.654 81.1604C266.096 77.9389 267.412 74.8998 269.458 72.3723C271.504 69.8448 274.203 67.9251 277.261 66.821C274.816 65.4745 272.887 63.3529 271.78 60.7902C270.672 58.2274 270.448 55.3691 271.143 52.6652C271.839 49.9612 273.413 47.5653 275.619 45.8545C277.826 44.1437 280.538 43.2152 283.33 43.2152C286.122 43.2152 288.835 44.1437 291.041 45.8545C293.247 47.5653 294.822 49.9612 295.517 52.6652C296.212 55.3691 295.988 58.2274 294.881 60.7902C293.773 63.3529 291.844 65.4745 289.399 66.821C292.025 67.7803 294.39 69.3427 296.302 71.3825C298.214 73.4223 299.621 75.8825 300.409 78.5652C302.376 76.3451 304.867 74.6511 307.655 73.6368C305.209 72.2903 303.281 70.1687 302.173 67.606C301.065 65.0432 300.841 62.1849 301.537 59.481C302.232 56.777 303.806 54.3811 306.013 52.6703C308.219 50.9595 310.931 50.031 313.723 50.031C316.515 50.031 319.228 50.9595 321.434 52.6703C323.64 54.3811 325.215 56.777 325.91 59.481C326.605 62.1849 326.381 65.0432 325.274 67.606C324.166 70.1687 322.238 72.2903 319.792 73.6368C321.716 74.3388 323.503 75.3675 325.077 76.6777C326.035 74.4082 327.451 72.3612 329.238 70.665C331.024 68.9689 333.142 67.6602 335.458 66.821C333.012 65.4745 331.084 63.3529 329.976 60.7902C328.869 58.2274 328.645 55.3691 329.34 52.6652C330.035 49.9612 331.61 47.5653 333.816 45.8545C336.022 44.1437 338.735 43.2152 341.527 43.2152C344.318 43.2152 347.031 44.1437 349.237 45.8545C351.443 47.5653 353.018 49.9612 353.713 52.6652C354.408 55.3691 354.185 58.2274 353.077 60.7902C351.969 63.3529 350.041 65.4745 347.595 66.821C351.042 68.0696 354.02 70.3503 356.123 73.3526C358.227 76.3548 359.353 79.9326 359.35 83.5984V88.8413H391.017C395.837 91.6077 400.991 93.7484 406.353 95.2114C421.997 99.5316 438.712 99.8829 453.759 105.965C457.749 107.58 461.718 109.692 464.308 113.132C470.285 121.064 466.856 132.19 466.195 142.099C465.809 148.38 466.6 154.679 468.528 160.669H45.5348C31.9032 148.736 21.1762 134.911 19.3883 117.253C18.4551 107.842 20.2901 98.2471 19.8235 88.8413Z" fill="black"/>
<path d="M521.094 40.3548V243.775L510.608 236.959V40.3548H504.317L501.695 230.143L491.734 222.803L498.549 37.7333" stroke="#E0E0E0" stroke-miterlimit="10"/>
<path d="M534.207 55.035L491.739 57.3943" stroke="#E0E0E0" stroke-miterlimit="10"/>
<path d="M531.585 65.5208L491.739 67.0937" stroke="#E0E0E0" stroke-miterlimit="10"/>
<path d="M531.585 78.1038L491.739 79.1524" stroke="#E0E0E0" stroke-miterlimit="10"/>
<path d="M531.585 89.6382L491.739 91.2111" stroke="#E0E0E0" stroke-miterlimit="10"/>
<path d="M531.585 102.746H490.166" stroke="#E0E0E0" stroke-miterlimit="10"/>
<path d="M531.585 115.853L489.117 114.28" stroke="#E0E0E0" stroke-miterlimit="10"/>
<path d="M531.585 127.912L489.117 125.814" stroke="#E0E0E0" stroke-miterlimit="10"/>
<path d="M531.585 141.019L489.117 137.873" stroke="#E0E0E0" stroke-miterlimit="10"/>
<path d="M532.634 152.553L487.545 148.359" stroke="#E0E0E0" stroke-miterlimit="10"/>
<path d="M532.634 165.661L487.545 158.845" stroke="#E0E0E0" stroke-miterlimit="10"/>
<path d="M532.634 180.865L485.972 172.476" stroke="#E0E0E0" stroke-miterlimit="10"/>
<path d="M532.634 198.167L485.972 184.535" stroke="#E0E0E0" stroke-miterlimit="10"/>
<path d="M533.682 215.993L484.399 196.594" stroke="#E0E0E0" stroke-miterlimit="10"/>
<path d="M533.682 232.246L484.399 208.128" stroke="#E0E0E0" stroke-miterlimit="10"/>
<path d="M480.199 39.8305L471.811 218.609H460.8L467.616 39.8305H455.557L447.693 218.609H435.634L442.45 39.8305H427.77L422.527 218.609H409.42L415.187 41.4034H401.555L398.41 218.609H386.351L390.021 39.8305H377.962L375.341 218.609H363.806L366.428 39.8305H352.796V218.609H339.165V39.8305H326.582L328.679 218.609H317.669L314.523 39.8305H301.94L306.134 218.609H295.124L289.881 39.8305H278.871L283.065 218.609H273.104L265.239 39.8305H254.754L263.142 218.609H252.656L241.122 39.8305H228.539L243.219 218.609H233.258L219.102 39.8305H209.14L223.82 218.609H212.81L198.654 37.7333H188.693L204.946 218.609H194.46L177.683 37.7333" stroke="#E0E0E0" stroke-miterlimit="10"/>
<path d="M154.089 40.3548L169.818 221.755L161.954 228.046L149.895 40.3548H141.506L149.895 234.862L137.836 242.726L133.123 37.7333" stroke="#E0E0E0" stroke-miterlimit="10"/>
<path d="M121.589 60.8022H169.823" stroke="#E0E0E0" stroke-miterlimit="10"/>
<path d="M121.589 73.9095H169.823" stroke="#E0E0E0" stroke-miterlimit="10"/>
<path d="M121.589 88.5897L169.823 87.0168" stroke="#E0E0E0" stroke-miterlimit="10"/>
<path d="M121.589 101.173L171.921 98.5512" stroke="#E0E0E0" stroke-miterlimit="10"/>
<path d="M121.589 115.329L171.921 113.231" stroke="#E0E0E0" stroke-miterlimit="10"/>
<path d="M121.589 130.533L174.018 127.912" stroke="#E0E0E0" stroke-miterlimit="10"/>
<path d="M121.589 145.213L174.018 139.97" stroke="#E0E0E0" stroke-miterlimit="10"/>
<path d="M121.589 161.991L174.018 149.408" stroke="#E0E0E0" stroke-miterlimit="10"/>
<path d="M121.589 176.671L176.115 158.321" stroke="#E0E0E0" stroke-miterlimit="10"/>
<path d="M121.589 191.875L176.115 170.904" stroke="#E0E0E0" stroke-miterlimit="10"/>
<path d="M120.016 206.555L174.296 183.775" stroke="#E0E0E0" stroke-miterlimit="10"/>
<path d="M120.016 223.333L176.115 195.021" stroke="#E0E0E0" stroke-miterlimit="10"/>
<path d="M120.016 238.537L177.688 206.555" stroke="#E0E0E0" stroke-miterlimit="10"/>
<path d="M491.739 55.035L169.823 57.6564" stroke="#E0E0E0" stroke-miterlimit="10"/>
<path d="M491.477 64.4722L169.561 67.0937" stroke="#E0E0E0" stroke-miterlimit="10"/>
<path d="M491.215 73.9095L169.299 76.5309" stroke="#E0E0E0" stroke-miterlimit="10"/>
<path d="M490.952 83.3467L169.037 85.9682" stroke="#E0E0E0" stroke-miterlimit="10"/>
<path d="M490.69 92.784L168.775 95.4055" stroke="#E0E0E0" stroke-miterlimit="10"/>
<path d="M490.428 102.221L172.707 104.843" stroke="#E0E0E0" stroke-miterlimit="10"/>
<path d="M490.166 111.659L172.445 114.28" stroke="#E0E0E0" stroke-miterlimit="10"/>
<path d="M489.904 121.096L172.183 123.717" stroke="#E0E0E0" stroke-miterlimit="10"/>
<path d="M489.642 130.533L171.921 133.154" stroke="#E0E0E0" stroke-miterlimit="10"/>
<path d="M489.38 139.97L174.804 142.592" stroke="#E0E0E0" stroke-miterlimit="10"/>
<path d="M489.117 149.408L174.542 152.029" stroke="#E0E0E0" stroke-miterlimit="10"/>
<path d="M488.855 158.845L174.28 161.466" stroke="#E0E0E0" stroke-miterlimit="10"/>
<path d="M488.593 168.282L176.115 170.904" stroke="#E0E0E0" stroke-miterlimit="10"/>
<path d="M488.331 177.719L175.853 180.341" stroke="#E0E0E0" stroke-miterlimit="10"/>
<path d="M488.069 187.157L177.164 189.778" stroke="#E0E0E0" stroke-miterlimit="10"/>
<path d="M487.807 196.594L176.901 199.215" stroke="#E0E0E0" stroke-miterlimit="10"/>
<path d="M487.545 206.031L176.639 208.653" stroke="#E0E0E0" stroke-miterlimit="10"/>
<path d="M533.677 252.688L485.966 218.609H176.11L121.589 252.688" stroke="#E0E0E0" stroke-width="3" stroke-miterlimit="10"/>
<path d="M536.639 215.814C536.639 215.814 537.85 180.026 557.207 159.815C565.384 151.386 570.605 140.531 572.087 128.882C572.748 123.348 572.901 117.765 572.543 112.204" stroke="#535461" stroke-width="2" stroke-miterlimit="10"/>
<path d="M584.664 99.3953C583.338 103.39 572.265 112.576 572.265 112.576C572.265 112.576 568.873 98.5879 570.199 94.5928C570.856 92.7001 572.232 91.1421 574.028 90.2557C575.825 89.3693 577.898 89.2258 579.8 89.8562C581.702 90.4867 583.279 91.8404 584.19 93.6245C585.101 95.4087 585.274 97.4798 584.67 99.3901L584.664 99.3953Z" fill="#FF4B00"/>
<path d="M589.283 125.495C586.001 128.116 571.709 129.82 571.709 129.82C571.709 129.82 576.464 116.236 579.746 113.604C580.524 112.952 581.425 112.462 582.394 112.163C583.364 111.863 584.384 111.761 585.394 111.861C586.403 111.961 587.383 112.262 588.275 112.745C589.168 113.229 589.954 113.886 590.589 114.677C591.224 115.469 591.695 116.38 591.973 117.355C592.251 118.331 592.332 119.353 592.211 120.361C592.089 121.368 591.767 122.341 591.265 123.223C590.762 124.104 590.088 124.877 589.283 125.495Z" fill="#FF4B00"/>
<path d="M576.218 163.144C572.055 163.757 558.864 158.006 558.864 158.006C558.864 158.006 569.827 148.679 573.99 148.044C575.966 147.799 577.96 148.336 579.545 149.541C581.13 150.747 582.181 152.525 582.472 154.495C582.763 156.465 582.272 158.471 581.103 160.083C579.934 161.696 578.181 162.787 576.218 163.123V163.144Z" fill="#FF4B00"/>
<path d="M559.918 189.401C555.918 190.711 541.945 187.267 541.945 187.267C541.945 187.267 551.173 176.225 555.173 174.909C556.13 174.575 557.144 174.435 558.156 174.497C559.168 174.559 560.157 174.822 561.066 175.272C561.974 175.721 562.784 176.347 563.448 177.113C564.112 177.879 564.617 178.769 564.932 179.733C565.248 180.696 565.368 181.713 565.286 182.723C565.204 183.733 564.921 184.717 564.454 185.617C563.987 186.517 563.346 187.314 562.567 187.963C561.788 188.612 560.887 189.099 559.918 189.395V189.401Z" fill="#FF4B00"/>
<path d="M556.258 125.542C558.203 129.275 570.598 136.589 570.598 136.589C570.598 136.589 571.725 122.244 569.785 118.506C569.323 117.618 568.691 116.829 567.924 116.185C567.157 115.542 566.271 115.055 565.317 114.754C564.362 114.452 563.357 114.342 562.36 114.429C561.362 114.516 560.392 114.798 559.504 115.26C558.615 115.722 557.827 116.355 557.183 117.122C556.539 117.888 556.053 118.774 555.752 119.729C555.45 120.684 555.34 121.688 555.427 122.686C555.514 123.683 555.796 124.654 556.258 125.542Z" fill="#FF4B00"/>
<path d="M537.588 156.506C540.561 159.49 554.575 162.756 554.575 162.756C554.575 162.756 551.361 148.731 548.389 145.748C546.954 144.353 545.029 143.578 543.028 143.59C541.028 143.603 539.112 144.401 537.694 145.813C536.277 147.225 535.471 149.137 535.452 151.138C535.432 153.138 536.199 155.067 537.588 156.506Z" fill="#FF4B00"/>
<path d="M523.569 189.081C525.991 192.52 539.256 198.109 539.256 198.109C539.256 198.109 538.459 183.738 536.031 180.283C535.459 179.455 534.728 178.748 533.881 178.204C533.033 177.659 532.087 177.288 531.095 177.112C530.104 176.935 529.087 176.957 528.104 177.176C527.122 177.394 526.192 177.805 525.369 178.385C524.545 178.966 523.845 179.703 523.309 180.555C522.772 181.407 522.41 182.357 522.242 183.35C522.075 184.343 522.106 185.359 522.334 186.34C522.561 187.321 522.981 188.247 523.569 189.065V189.081Z" fill="#FF4B00"/>
<path d="M544.504 247.796C544.504 247.796 545.715 212.008 565.072 191.797C573.248 183.368 578.47 172.513 579.951 160.863C580.612 155.33 580.765 149.747 580.407 144.186" stroke="#535461" stroke-width="2" stroke-miterlimit="10"/>
<path d="M592.529 131.377C591.202 135.372 580.129 144.558 580.129 144.558C580.129 144.558 576.737 130.57 578.064 126.575C578.72 124.682 580.096 123.124 581.893 122.238C583.689 121.351 585.763 121.208 587.664 121.838C589.566 122.468 591.143 123.822 592.054 125.606C592.966 127.39 593.138 129.462 592.534 131.372L592.529 131.377Z" fill="#FF4B00"/>
<path d="M597.148 157.476C593.866 160.098 579.574 161.802 579.574 161.802C579.574 161.802 584.329 148.217 587.611 145.585C588.389 144.934 589.289 144.444 590.259 144.145C591.228 143.845 592.248 143.743 593.258 143.843C594.268 143.943 595.248 144.243 596.14 144.727C597.032 145.211 597.819 145.868 598.453 146.659C599.088 147.451 599.559 148.361 599.837 149.337C600.116 150.313 600.197 151.335 600.075 152.342C599.953 153.35 599.632 154.323 599.129 155.205C598.626 156.086 597.953 156.859 597.148 157.476Z" fill="#FF4B00"/>
<path d="M584.082 195.126C579.92 195.739 566.728 189.988 566.728 189.988C566.728 189.988 577.691 180.661 581.854 180.026C583.83 179.78 585.824 180.318 587.41 181.523C588.995 182.729 590.045 184.507 590.336 186.477C590.627 188.447 590.136 190.453 588.967 192.065C587.799 193.678 586.045 194.769 584.082 195.105V195.126Z" fill="#FF4B00"/>
<path d="M567.782 221.382C563.782 222.693 549.809 219.249 549.809 219.249C549.809 219.249 559.037 208.207 563.037 206.891C563.994 206.557 565.008 206.416 566.02 206.479C567.032 206.541 568.021 206.804 568.93 207.253C569.839 207.702 570.649 208.328 571.313 209.094C571.977 209.86 572.481 210.751 572.797 211.715C573.112 212.678 573.232 213.694 573.15 214.705C573.068 215.715 572.785 216.699 572.318 217.599C571.852 218.499 571.21 219.296 570.431 219.945C569.652 220.594 568.752 221.081 567.782 221.377V221.382Z" fill="#FF4B00"/>
<path d="M564.123 157.524C566.068 161.257 578.462 168.57 578.462 168.57C578.462 168.57 579.589 154.226 577.649 150.488C576.716 148.694 575.109 147.344 573.181 146.736C571.253 146.127 569.162 146.309 567.368 147.242C565.574 148.175 564.225 149.783 563.616 151.711C563.007 153.639 563.19 155.73 564.123 157.524Z" fill="#FF4B00"/>
<path d="M545.453 188.488C548.425 191.472 562.44 194.738 562.44 194.738C562.44 194.738 559.226 180.713 556.253 177.73C554.819 176.335 552.893 175.56 550.893 175.572C548.892 175.584 546.976 176.383 545.559 177.794C544.141 179.206 543.336 181.119 543.316 183.12C543.296 185.12 544.064 187.048 545.453 188.488Z" fill="#FF4B00"/>
<path d="M531.433 221.063C533.855 224.502 547.12 230.091 547.12 230.091C547.12 230.091 546.323 215.72 543.895 212.265C543.323 211.437 542.592 210.73 541.745 210.185C540.898 209.641 539.951 209.27 538.96 209.094C537.968 208.917 536.952 208.939 535.969 209.157C534.986 209.376 534.056 209.787 533.233 210.367C532.41 210.947 531.71 211.685 531.173 212.537C530.637 213.389 530.274 214.339 530.107 215.332C529.939 216.325 529.97 217.341 530.198 218.322C530.426 219.303 530.845 220.229 531.433 221.047V221.063Z" fill="#FF4B00"/>
<path d="M113.981 56.5187C114.238 46.3736 121.264 37.4607 131.178 35.2849L131.461 35.2272C131.861 35.1474 132.269 35.1087 132.677 35.1118H525.058C527.956 35.0883 530.81 35.8157 533.343 37.2234C535.877 38.631 538.002 40.6708 539.512 43.144L539.612 43.317C540.189 44.3291 540.499 45.471 540.514 46.6358L544.158 252.683H531.575L527.38 51.3544C527.38 51.3544 527.38 45.5872 522.137 45.0629C521.335 44.9843 511.604 44.9266 495.708 44.8899L486.491 219.133H481.248L491.498 44.8847C421.61 44.7483 250.549 44.9214 171.155 45.0157L181.337 218.085H176.094L166.95 45.021L136.73 45.0577C134.514 45.0591 132.337 45.6406 130.416 46.7444C128.494 47.8481 126.895 49.4357 125.778 51.3492L121.583 252.677H109L113.981 56.5187Z" fill="#E0E0E0"/>
<path d="M108.932 256.929C108.932 256.929 107.233 229.215 120.692 212.186C126.383 205.08 129.616 196.319 129.904 187.22C130.006 182.895 129.711 178.571 129.023 174.301" stroke="#535461" stroke-width="2" stroke-miterlimit="10"/>
<path d="M137.443 163.532C136.714 166.714 128.84 174.621 128.84 174.621C128.84 174.621 125.17 164.072 125.919 160.895C126.091 160.137 126.411 159.421 126.86 158.788C127.309 158.154 127.878 157.614 128.535 157.201C129.193 156.787 129.925 156.507 130.69 156.376C131.456 156.245 132.24 156.266 132.997 156.438C133.755 156.61 134.471 156.93 135.104 157.379C135.738 157.828 136.278 158.397 136.691 159.054C137.105 159.712 137.385 160.444 137.516 161.209C137.647 161.975 137.626 162.759 137.454 163.516L137.443 163.532Z" fill="#FF4B00"/>
<path d="M142.927 183.34C140.584 185.615 129.678 187.974 129.678 187.974C129.678 187.974 132.347 177.137 134.691 174.867C135.247 174.326 135.905 173.9 136.626 173.614C137.348 173.327 138.118 173.185 138.894 173.197C139.67 173.208 140.437 173.372 141.149 173.679C141.862 173.986 142.507 174.431 143.048 174.988C143.589 175.544 144.015 176.202 144.301 176.923C144.588 177.645 144.73 178.415 144.718 179.191C144.707 179.967 144.543 180.734 144.236 181.446C143.929 182.159 143.484 182.804 142.927 183.345V183.34Z" fill="#FF4B00"/>
<path d="M135.613 213.361C132.468 214.142 121.84 210.671 121.84 210.671C121.84 210.671 129.605 202.665 132.782 201.884C134.304 201.509 135.913 201.753 137.255 202.564C138.596 203.374 139.561 204.685 139.936 206.207C140.312 207.729 140.067 209.337 139.256 210.679C138.446 212.021 137.135 212.985 135.613 213.361Z" fill="#FF4B00"/>
<path d="M124.96 234.831C121.966 236.136 110.93 234.505 110.93 234.505C110.93 234.505 117.221 225.299 120.231 224.02C120.945 223.691 121.717 223.508 122.503 223.481C123.289 223.455 124.072 223.586 124.807 223.866C125.541 224.146 126.213 224.57 126.781 225.113C127.35 225.655 127.805 226.306 128.119 227.027C128.433 227.748 128.6 228.524 128.61 229.31C128.62 230.096 128.473 230.877 128.178 231.605C127.883 232.334 127.445 232.996 126.891 233.554C126.337 234.111 125.676 234.552 124.949 234.851L124.96 234.831Z" fill="#FF4B00"/>
<path d="M117.441 185.835C119.214 188.577 129.322 193.307 129.322 193.307C129.322 193.307 129.138 182.15 127.361 179.408C126.509 178.092 125.169 177.169 123.636 176.842C122.103 176.514 120.503 176.809 119.187 177.662C117.872 178.514 116.949 179.854 116.622 181.387C116.294 182.92 116.589 184.52 117.441 185.835Z" fill="#FF4B00"/>
<path d="M105.304 211.08C107.815 213.177 118.878 214.656 118.878 214.656C118.878 214.656 115.365 204.065 112.849 201.978C112.251 201.483 111.562 201.11 110.82 200.881C110.078 200.652 109.299 200.572 108.526 200.644C107.753 200.716 107.002 200.94 106.316 201.303C105.629 201.665 105.021 202.159 104.525 202.757C104.03 203.355 103.657 204.044 103.428 204.786C103.199 205.527 103.119 206.307 103.191 207.08C103.263 207.853 103.487 208.604 103.85 209.29C104.212 209.976 104.706 210.585 105.304 211.08Z" fill="#FF4B00"/>
<path d="M96.8787 237.258C99.0021 239.738 109.65 243.078 109.65 243.078C109.65 243.078 107.978 232.067 105.849 229.567C104.829 228.376 103.377 227.64 101.814 227.52C100.25 227.4 98.7034 227.906 97.5131 228.927C96.3228 229.948 95.5868 231.399 95.4668 232.963C95.3468 234.526 95.8528 236.073 96.8735 237.263L96.8787 237.258Z" fill="#FF4B00"/>
<path opacity="0.5" d="M137.443 163.532C136.714 166.714 128.84 174.621 128.84 174.621C128.84 174.621 125.17 164.072 125.919 160.895C126.091 160.137 126.411 159.421 126.86 158.788C127.309 158.154 127.878 157.614 128.535 157.201C129.193 156.787 129.925 156.507 130.69 156.376C131.456 156.245 132.24 156.266 132.997 156.438C133.755 156.61 134.471 156.93 135.104 157.379C135.738 157.828 136.278 158.397 136.691 159.054C137.105 159.712 137.385 160.444 137.516 161.209C137.647 161.975 137.626 162.759 137.454 163.516L137.443 163.532Z" fill="white"/>
<path opacity="0.5" d="M142.927 183.34C140.584 185.615 129.678 187.974 129.678 187.974C129.678 187.974 132.347 177.137 134.691 174.867C135.247 174.326 135.905 173.9 136.626 173.614C137.348 173.327 138.118 173.185 138.894 173.197C139.67 173.208 140.437 173.372 141.149 173.679C141.862 173.986 142.507 174.431 143.048 174.988C143.589 175.544 144.015 176.202 144.301 176.923C144.588 177.645 144.73 178.415 144.718 179.191C144.707 179.967 144.543 180.734 144.236 181.446C143.929 182.159 143.484 182.804 142.927 183.345V183.34Z" fill="white"/>
<path opacity="0.5" d="M135.613 213.361C132.468 214.142 121.84 210.671 121.84 210.671C121.84 210.671 129.605 202.665 132.782 201.884C134.304 201.509 135.913 201.753 137.255 202.564C138.596 203.374 139.561 204.685 139.936 206.207C140.312 207.729 140.067 209.337 139.256 210.679C138.446 212.021 137.135 212.985 135.613 213.361Z" fill="white"/>
<path opacity="0.5" d="M124.96 234.831C121.966 236.136 110.93 234.505 110.93 234.505C110.93 234.505 117.221 225.299 120.231 224.02C120.945 223.691 121.717 223.508 122.503 223.481C123.289 223.455 124.072 223.586 124.807 223.866C125.541 224.146 126.213 224.57 126.781 225.113C127.35 225.655 127.805 226.306 128.119 227.027C128.433 227.748 128.6 228.524 128.61 229.31C128.62 230.096 128.473 230.877 128.178 231.605C127.883 232.334 127.445 232.996 126.891 233.554C126.337 234.111 125.676 234.552 124.949 234.851L124.96 234.831Z" fill="white"/>
<path opacity="0.5" d="M117.441 185.835C119.214 188.577 129.322 193.307 129.322 193.307C129.322 193.307 129.138 182.15 127.361 179.408C126.509 178.092 125.169 177.169 123.636 176.842C122.103 176.514 120.503 176.809 119.187 177.662C117.872 178.514 116.949 179.854 116.622 181.387C116.294 182.92 116.589 184.52 117.441 185.835Z" fill="white"/>
<path opacity="0.5" d="M105.304 211.08C107.815 213.177 118.878 214.656 118.878 214.656C118.878 214.656 115.365 204.065 112.849 201.978C112.251 201.483 111.562 201.11 110.82 200.881C110.078 200.652 109.299 200.572 108.526 200.644C107.753 200.716 107.002 200.94 106.316 201.303C105.629 201.665 105.021 202.159 104.525 202.757C104.03 203.355 103.657 204.044 103.428 204.786C103.199 205.527 103.119 206.307 103.191 207.08C103.263 207.853 103.487 208.604 103.85 209.29C104.212 209.976 104.706 210.585 105.304 211.08Z" fill="white"/>
<path opacity="0.5" d="M96.8787 237.258C99.0021 239.738 109.65 243.078 109.65 243.078C109.65 243.078 107.978 232.067 105.849 229.567C104.829 228.376 103.377 227.64 101.814 227.52C100.25 227.4 98.7034 227.906 97.5131 228.927C96.3228 229.948 95.5868 231.399 95.4668 232.963C95.3468 234.526 95.8528 236.073 96.8735 237.263L96.8787 237.258Z" fill="white"/>
<g opacity="0.1">
<path opacity="0.1" d="M200.384 150.367C200.322 150.288 200.29 150.236 200.29 150.236L200.384 150.367Z" fill="url(#paint0_linear_58_12)"/>
</g>
<path d="M287.071 157.524C286.971 160.863 289.042 162.116 289.042 162.116L308.389 179.25C315.855 181.956 316.777 196.148 316.777 196.148C317.511 197.459 317.826 199.734 317.826 202.44C317.737 210.828 315.367 222.52 315.367 222.52L315.435 222.63L315.367 222.971L315.435 223.081L315.367 223.422C315.737 224.02 316.138 224.6 316.568 225.157C314.47 229.451 310.564 236.361 308.876 237.835C306.543 239.864 301.877 254.958 301.877 254.958L302.029 254.921L301.877 255.409H301.977C300.844 257.595 299.691 260.416 299.444 263.2C299.278 265.025 298.9 266.825 298.317 268.563C297.629 270.583 297.569 272.764 298.144 274.818C298.606 276.462 298.911 278.145 299.056 279.846C299.349 283.123 300.154 286.334 301.442 289.362C303.576 294.432 306.402 301.358 306.548 302.752C306.627 303.507 306.811 304.619 307.02 305.767L306.9 305.799L301.882 317.176C301.882 317.176 300.482 320.322 297.688 320.322C297.416 320.32 297.146 320.376 296.897 320.486C296.648 320.596 296.425 320.758 296.243 320.961C296.061 321.163 295.924 321.402 295.842 321.662C295.759 321.921 295.733 322.195 295.764 322.466C295.727 322.782 295.768 323.103 295.884 323.399V323.431C295.884 323.483 295.932 323.535 295.952 323.588L296 323.677C296.026 323.729 296.057 323.777 296.094 323.829L296.157 323.918L296.272 324.06L296.351 324.149L296.487 324.285L296.582 324.374L296.739 324.5L296.854 324.584L297.038 324.699L297.174 324.783L297.379 324.888L297.536 324.967L297.761 325.061L297.94 325.135L298.191 325.218L298.39 325.281L298.674 325.349L298.899 325.402L299.208 325.454L299.455 325.496L299.796 325.533L300.063 325.564H300.44H300.724H301.442H301.94H302.218C302.487 325.564 302.765 325.542 303.051 325.496C312.153 324.595 318.916 317.632 318.916 317.632V317.501V317.37V317.239L318.948 317.202C318.948 317.202 318.361 308.137 315.031 306.087C314.7 304.403 314.524 302.692 314.507 300.975C314.507 294.684 316.374 288.355 311.241 277.99C311.241 277.99 311.005 275.285 312.877 271.232C313.974 269.06 315.189 266.949 316.515 264.909L316.746 264.883L316.374 265.376C316.374 265.376 322.44 264.925 322.906 260.867C322.95 260.529 323.03 260.197 323.142 259.876C324.547 255.797 331.332 250.014 334.341 249.6C337.607 249.149 344.14 256.809 346.709 262.219C346.856 262.529 347.008 262.822 347.16 263.09C349.666 267.499 352.775 266.503 352.775 266.503C352.665 266.372 352.571 266.246 352.471 266.115C352.574 266.102 352.676 266.081 352.775 266.052C352.5 265.719 352.246 265.368 352.015 265.003C354.348 267.531 356.828 269.858 357.908 271.216C360.241 274.147 359.077 276.171 359.077 277.073C359.077 281.136 353.708 293.069 355.108 299.617C355.8 302.852 355.009 306.638 354.028 309.636H353.824C349.855 311.136 349.394 316.515 349.425 319.22C349.425 319.304 349.425 319.388 349.425 319.467C349.425 319.603 349.425 319.734 349.425 319.86V319.944C349.425 320.045 349.425 320.143 349.425 320.238V320.306C349.425 320.411 349.425 320.51 349.425 320.599C349.425 320.694 349.425 320.783 349.425 320.856V320.888V321.045V321.087V321.171V321.229C349.425 321.229 360.624 326.183 370.192 327.52C370.528 327.567 370.848 327.604 371.157 327.63H371.44L372.043 327.667H372.861H373.123C373.307 327.667 373.48 327.667 373.647 327.625H373.815C374.032 327.597 374.236 327.562 374.429 327.52L374.554 327.489C374.701 327.452 374.837 327.42 374.969 327.378L375.142 327.321L375.451 327.2L375.608 327.127C375.703 327.08 375.792 327.032 375.881 326.98L376.022 326.87C376.128 326.801 376.23 326.726 376.326 326.644C376.422 326.562 376.511 326.473 376.594 326.377L376.662 326.293C376.714 326.229 376.763 326.163 376.809 326.094L376.872 325.989C376.91 325.923 376.943 325.856 376.971 325.79L377.019 325.685C377.047 325.61 377.072 325.533 377.092 325.454V325.376C377.115 325.274 377.13 325.17 377.139 325.066C377.139 325.066 377.139 325.03 377.139 325.009C377.143 324.925 377.143 324.841 377.139 324.757C377.139 324.726 377.139 324.689 377.139 324.657C377.275 323.273 376.18 321.894 375.084 322.104C372.751 322.555 369.715 319.85 369.715 319.85L363.335 309.427C363.235 306.989 363.508 303.89 365.049 301.374C368.085 296.419 371.818 285.828 371.818 285.828C371.818 285.828 371.351 279.296 373.217 276.139C375.084 272.983 373.217 268.029 373.217 268.029L367.508 257.019C368.163 257.019 368.556 257.019 368.556 257.019L368.352 256.568H368.556C368.556 256.568 361.557 241.022 358.757 239.219C356.76 237.934 353.939 230.699 352.466 226.636C353.053 226.326 353.378 226.111 353.378 226.111C353.378 226.111 355.014 206.508 355.014 194.13C355.014 181.751 363.403 176.781 363.403 176.781L382.838 165.278C387.971 163.249 388.674 158.069 388.674 158.069L388.616 157.922C388.658 157.728 388.674 157.618 388.674 157.618L388.616 157.471C388.658 157.277 388.674 157.167 388.674 157.167L379.341 133.286C379.341 133.359 379.283 133.422 379.257 133.49C378.597 129.374 376.557 122.931 370.239 122.48C360.907 121.804 357.656 126.538 359.507 126.989C361.358 127.44 369.306 130.596 369.306 130.596L372.452 135.666C372.247 135.598 372.132 135.55 372.132 135.55C372.31 135.619 372.467 135.733 372.588 135.881L372.798 136.216C372.389 136.101 372.137 136.001 372.137 136.001C372.195 136.025 372.249 136.055 372.3 136.091C372.346 136.115 372.39 136.143 372.431 136.174C372.473 136.212 372.514 136.253 372.552 136.295C372.594 136.337 372.634 136.38 372.672 136.426C372.714 136.479 372.751 136.536 372.793 136.594L372.856 136.688C372.614 136.623 372.376 136.546 372.143 136.458C374.586 137.244 375.608 152.066 375.813 155.856L363.728 161.241C363.728 161.241 351.596 161.241 346.463 164.172C341.959 166.741 339.789 164.628 339.327 164.072C339.642 164.474 339.92 164.862 340.161 165.236L340.03 165.147L339.909 165.063L339.81 164.984L339.699 164.89L339.663 164.858C338.602 162.872 337.903 160.714 337.597 158.483C338.17 157.117 338.451 155.647 338.422 154.166C338.393 152.685 338.055 151.227 337.429 149.885C337.626 150.024 337.841 150.135 338.069 150.215C337.544 149.233 337.19 148.169 337.02 147.069C336.905 145.837 337.256 144.526 336.732 143.399C336.676 143.285 336.613 143.175 336.543 143.069C336.543 143.032 336.543 142.99 336.501 142.948C335.977 141.805 334.692 141.176 333.88 140.18C333.355 139.509 333.057 138.691 332.553 137.999C331.915 137.184 331.033 136.594 330.036 136.317C329.039 136.039 327.979 136.089 327.012 136.458C326.246 136.767 325.533 137.286 324.705 137.302C324.276 137.281 323.852 137.207 323.441 137.081C320.873 136.548 318.197 137.049 315.996 138.476C313.85 139.893 312.155 141.894 311.11 144.243C310.544 145.397 310.176 146.638 310.019 147.913C309.958 149.25 309.979 150.59 310.082 151.924C310.129 154.121 309.804 156.428 310.743 158.425C310.8 158.551 310.874 158.661 310.937 158.782C310.937 158.813 310.937 158.845 310.973 158.876C311.865 160.779 313.731 162.022 315.519 163.223L317.831 164.748L318.093 164.921C317.431 164.855 316.765 164.841 316.101 164.879C312.599 165.105 305.615 161.734 305.615 161.734L298.328 155.138L301.882 140.552L301.746 140.652L301.882 140.101L301.746 140.201L301.882 139.65C301.814 139.703 301.751 139.75 301.683 139.797L305.379 133.789C305.379 133.789 313.312 130.643 315.178 130.182C317.045 129.72 313.778 125.002 304.446 125.673C297.578 126.171 295.764 133.742 295.287 137.732C294.883 137.286 294.647 136.961 294.647 136.961L288.104 152.438C287.421 153.892 287.063 155.477 287.055 157.083C287.066 157.235 287.066 157.387 287.071 157.524ZM339.951 165.388L340.14 165.671L339.951 165.388ZM321.25 165.451C321.77 165.278 322.234 164.97 322.597 164.56C323.183 164.783 323.786 164.958 324.401 165.084C324.234 165.657 324 166.207 323.703 166.725C323.614 166.374 323.572 166.159 323.572 166.159C322.812 165.879 322.036 165.641 321.25 165.446V165.451ZM317.302 263.546C317.826 262.702 318.35 261.879 318.875 261.103C318.424 261.931 317.826 262.833 317.302 263.546Z" fill="url(#paint1_linear_58_12)"/>
<path d="M364.949 254.166L371.634 267.536C371.634 267.536 373.417 272.438 371.634 275.557C369.851 278.677 370.297 285.142 370.297 285.142C370.297 285.142 366.732 295.627 363.833 300.519C360.933 305.411 362.716 312.578 362.716 312.578L351.129 313.915C351.129 313.915 355.585 305.222 354.275 298.757C352.964 292.293 358.065 280.491 358.065 276.47C358.065 275.578 359.182 273.57 356.949 270.676C354.715 267.782 346.253 260.426 346.463 256.19L364.949 254.166Z" fill="#F7BBC3"/>
<path d="M305.893 251.047C305.893 251.047 301.615 256.971 301.117 262.739C300.967 264.539 300.615 266.317 300.068 268.039C299.41 270.041 299.352 272.191 299.9 274.226C300.342 275.854 300.633 277.52 300.771 279.201C301.046 282.444 301.813 285.627 303.046 288.639C305.086 293.656 307.765 300.503 307.922 301.882C308.147 304.11 309.259 309.458 309.259 309.458L318.172 312.803C318.172 312.803 315.498 306.339 315.498 300.1C315.498 293.861 317.281 287.621 312.352 277.366C312.352 277.366 312.127 274.692 313.925 270.682C315.724 266.671 322.618 256.195 322.618 256.195L305.893 251.047Z" fill="#F7BBC3"/>
<path opacity="0.1" d="M320.301 258.995C321.035 259.792 317.254 264.867 317.254 264.867C317.254 264.867 323.048 264.422 323.494 260.411C323.536 260.077 323.611 259.749 323.719 259.43C325.061 255.398 331.541 249.678 334.415 249.27C337.56 248.824 343.773 256.4 346.227 261.748C346.368 262.057 346.51 262.34 346.657 262.608C349.053 266.97 352.02 265.984 352.02 265.984C350.447 264.044 350.122 262.508 350.615 261.265C352.566 256.458 367.172 256.599 367.172 256.599C367.172 256.599 360.488 241.222 357.814 239.439C355.14 237.656 350.904 224.282 350.904 224.282C350.904 224.282 319.032 220.717 318.812 222.274C318.591 223.831 312.347 236.094 310.119 238.097C307.891 240.1 303.439 255.042 303.439 255.042C311.015 252.814 319.373 258.272 320.264 258.943L320.301 258.995Z" fill="black"/>
<path d="M320.301 258.549C321.035 259.346 317.254 264.422 317.254 264.422C317.254 264.422 323.048 263.976 323.494 259.965C323.536 259.632 323.611 259.303 323.719 258.985C325.061 254.953 331.541 249.233 334.415 248.824C337.56 248.378 343.773 255.954 346.227 261.302C346.368 261.611 346.51 261.894 346.657 262.162C349.053 266.524 352.02 265.538 352.02 265.538C350.447 263.598 350.122 262.062 350.615 260.82C352.566 256.012 367.172 256.153 367.172 256.153C367.172 256.153 360.488 240.776 357.814 238.993C355.14 237.211 350.904 223.836 350.904 223.836C350.904 223.836 319.032 220.271 318.812 221.828C318.591 223.385 312.347 235.648 310.119 237.651C307.891 239.654 303.434 254.591 303.434 254.591C311.01 252.363 319.367 257.821 320.259 258.492L320.301 258.549Z" fill="#565171"/>
<path opacity="0.1" d="M362.165 308.436L368.294 318.801C368.294 318.801 371.194 321.475 373.422 321.029C375.65 320.584 377.878 327.268 368.74 325.932C359.602 324.595 348.906 319.692 348.906 319.692C348.906 319.692 347.905 310.664 353.027 308.682L362.165 308.436Z" fill="black"/>
<path opacity="0.1" d="M308.231 304.85L303.439 316.106C303.439 316.106 302.102 319.252 299.429 319.252C296.755 319.252 295.863 324.825 304.556 323.934C313.249 323.043 319.713 316.133 319.713 316.133C319.713 316.133 319.042 305.437 315.031 304.766C312.782 304.338 310.47 304.367 308.231 304.85Z" fill="black"/>
<path d="M362.165 308.882L368.294 319.247C368.294 319.247 371.194 321.921 373.422 321.475C375.65 321.029 377.878 327.714 368.74 326.377C359.602 325.04 348.906 320.138 348.906 320.138C348.906 320.138 347.905 311.11 353.027 309.128L362.165 308.882Z" fill="#B77983"/>
<path d="M308.231 305.316L303.439 316.573C303.439 316.573 302.102 319.719 299.429 319.719C296.755 319.719 295.863 325.292 304.556 324.401C313.249 323.509 319.713 316.599 319.713 316.599C319.713 316.599 319.042 305.904 315.031 305.232C312.782 304.805 310.47 304.833 308.231 305.316Z" fill="#B77983"/>
<g opacity="0.1">
<path opacity="0.1" d="M319.923 221.854C319.698 223.427 313.459 235.675 311.23 237.677C309.186 239.518 305.259 252.263 304.63 254.329C304.226 254.408 303.827 254.497 303.429 254.612C303.429 254.612 307.885 239.68 310.114 237.672C312.342 235.664 318.581 223.406 318.806 221.849C318.848 221.54 320.154 221.43 322.204 221.461C320.82 221.487 319.965 221.603 319.923 221.854Z" fill="black"/>
<path opacity="0.1" d="M335.531 248.819C338.677 248.373 344.89 255.949 347.344 261.297C347.485 261.606 347.627 261.889 347.773 262.157C349.158 264.673 350.725 265.407 351.811 265.58C351.092 265.711 348.665 265.821 346.657 262.157C346.51 261.889 346.368 261.606 346.227 261.297C343.978 256.389 338.546 249.616 335.253 248.871L335.531 248.819Z" fill="black"/>
<path opacity="0.1" d="M320.301 258.549L320.264 258.513C319.546 257.988 313.972 254.318 307.864 254.093C314.392 253.868 320.615 257.941 321.381 258.513L321.417 258.549C322.062 259.252 319.221 263.268 318.523 264.212C318.107 264.306 317.685 264.375 317.26 264.416C317.26 264.416 321.035 259.346 320.301 258.549Z" fill="black"/>
</g>
<path d="M377.653 137.831C377.653 137.831 377.653 124.236 368.74 123.565C359.827 122.894 356.681 127.576 358.49 128.022C360.299 128.467 367.849 131.587 367.849 131.587L372.751 139.834L377.653 137.831Z" fill="#F7BBC3"/>
<path d="M296.975 140.951C296.975 140.951 296.975 127.356 305.888 126.685C314.801 126.014 317.947 130.696 316.138 131.141C314.329 131.587 306.779 134.706 306.779 134.706L301.877 142.954L296.975 140.951Z" fill="#F7BBC3"/>
<path d="M337.314 154.991C337.314 154.991 336.643 163.904 342.216 169.032C347.789 174.159 329.292 180.619 329.292 180.619L321.045 170.814C321.045 170.814 327.73 166.804 324.191 159.893L337.314 154.991Z" fill="#F7BBC3"/>
<path opacity="0.1" d="M339.096 165.467C339.096 165.467 341.105 168.612 346.007 165.692C350.909 162.772 362.501 162.767 362.501 162.767L374.088 157.419C374.088 157.419 373.196 138.251 370.523 137.359C370.523 137.359 375.87 139.588 377.433 135.131L386.346 158.756C386.346 158.756 385.675 163.883 380.772 165.886L362.275 177.253C362.275 177.253 354.254 182.155 354.254 194.413C354.254 206.671 352.681 226.059 352.681 226.059C352.681 226.059 326.828 241.662 316.353 223.385C316.353 223.385 320.589 201.769 317.69 196.416C317.69 196.416 316.798 182.375 309.668 179.701L291.181 162.767C291.181 162.767 287.616 160.538 290.29 154.074L296.529 138.696C296.529 138.696 300.32 144.044 303.439 141.37L299.874 156.527L307.005 163.212C307.005 163.212 313.689 166.557 317.034 166.358C320.379 166.159 324.165 167.695 324.165 167.695C324.165 167.695 325.737 176.608 332.857 175.717C332.857 175.717 346.452 175.051 339.096 165.467Z" fill="black"/>
<path opacity="0.1" d="M339.096 164.575C339.096 164.575 341.104 167.721 346.007 164.801C350.909 161.88 362.501 161.901 362.501 161.901L374.088 156.554C374.088 156.554 373.196 137.386 370.523 136.494C370.523 136.494 375.87 138.722 377.433 134.266L386.346 157.891C386.346 157.891 385.675 163.018 380.772 165.021L362.275 176.398C362.275 176.398 354.254 181.3 354.254 193.558C354.254 205.816 352.681 225.204 352.681 225.204C352.681 225.204 326.828 240.807 316.353 222.531C316.353 222.531 320.589 200.914 317.69 195.561C317.69 195.561 316.798 181.52 309.668 178.847L291.171 161.907C291.171 161.907 287.606 159.678 290.28 153.214L296.519 137.836C296.519 137.836 300.309 143.184 303.429 140.51L299.864 155.668L306.994 162.352C306.994 162.352 313.679 165.697 317.024 165.498C320.369 165.299 324.154 166.835 324.154 166.835C324.154 166.835 325.727 175.748 332.847 174.857C332.857 174.825 346.452 174.159 339.096 164.575Z" fill="black"/>
<path d="M339.107 165.037L339.196 165.157L339.107 165.037Z" fill="#D39999"/>
<path d="M291.181 162.347L309.678 179.287C316.809 181.961 317.7 196.001 317.7 196.001C320.599 201.349 316.363 222.971 316.363 222.971C326.849 241.248 352.691 225.645 352.691 225.645C352.691 225.645 352.744 225.005 352.828 223.878C352.901 222.892 353.001 221.529 353.111 219.909C353.258 217.812 353.425 215.28 353.583 212.532C353.934 206.529 354.254 199.535 354.254 193.999C354.254 181.741 362.275 176.839 362.275 176.839L376.153 168.314L380.778 165.472C385.68 163.464 386.351 158.341 386.351 158.341L377.438 134.717C375.98 138.88 371.215 137.207 370.596 136.971C373.217 138.156 374.093 157.005 374.093 157.005L362.506 162.352C362.506 162.352 350.919 162.352 346.012 165.252C341.818 167.716 339.768 165.828 339.243 165.204C346.29 174.642 332.863 175.276 332.863 175.276C325.732 176.167 324.17 167.254 324.17 167.254C324.17 167.254 320.379 165.682 317.04 165.918C313.7 166.153 307.01 162.772 307.01 162.772L299.879 156.087L303.445 140.93C300.299 143.604 296.534 138.256 296.534 138.256L290.295 153.633C287.616 160.119 291.181 162.347 291.181 162.347Z" fill="#B45181"/>
<path opacity="0.1" d="M337.314 155.883C337.248 157.284 337.32 158.689 337.529 160.077C336.559 162.492 334.758 164.482 332.451 165.686C330.144 166.891 327.482 167.231 324.946 166.646C325.452 164.667 325.168 162.569 324.154 160.795L337.314 155.883Z" fill="black"/>
<path d="M327.4 166.028C333.431 166.028 338.32 161.138 338.32 155.107C338.32 149.075 333.431 144.186 327.4 144.186C321.368 144.186 316.478 149.075 316.478 155.107C316.478 161.138 321.368 166.028 327.4 166.028Z" fill="#F7BBC3"/>
<path opacity="0.1" d="M327.573 148.894C327.667 150 327.746 151.18 327.237 152.165C326.954 152.661 326.601 153.113 326.188 153.508L323.902 155.862C323.182 156.495 322.623 157.291 322.272 158.184C321.611 160.386 323.562 162.573 323.499 164.874C323.149 165.422 322.63 165.841 322.02 166.066C321.411 166.291 320.744 166.311 320.122 166.122C319.618 165.929 319.143 165.666 318.712 165.341L316.473 163.815C314.769 162.651 312.987 161.393 312.132 159.516C311.236 157.539 311.54 155.253 311.498 153.083C311.4 151.762 311.381 150.437 311.44 149.114C311.59 147.852 311.944 146.623 312.489 145.475C313.476 143.18 315.094 141.211 317.155 139.797C318.186 139.101 319.348 138.62 320.569 138.383C321.791 138.147 323.047 138.158 324.264 138.418C324.655 138.541 325.061 138.614 325.47 138.633C326.262 138.633 326.943 138.109 327.672 137.8C328.599 137.438 329.619 137.391 330.576 137.667C331.532 137.942 332.37 138.525 332.962 139.325C333.445 140.007 333.722 140.82 334.226 141.48C334.976 142.466 336.197 143.09 336.706 144.217C337.214 145.344 336.873 146.634 336.984 147.85C337.14 148.938 337.475 149.992 337.974 150.97C336.737 150.54 336.134 149.187 335.353 148.149C334.734 147.379 333.958 146.749 333.077 146.303C332.195 145.856 331.228 145.603 330.241 145.559C329.56 145.528 328.296 145.475 327.756 145.994C327.069 146.66 327.504 148.086 327.573 148.894Z" fill="black"/>
<path d="M327.352 148.448C327.447 149.554 327.525 150.734 327.017 151.72C326.734 152.215 326.381 152.667 325.968 153.062L323.651 155.426C322.932 156.055 322.373 156.846 322.02 157.733C321.36 159.935 323.31 162.122 323.247 164.423C322.898 164.971 322.378 165.39 321.769 165.615C321.159 165.84 320.493 165.86 319.871 165.671C319.366 165.478 318.892 165.215 318.46 164.89L316.253 163.385C314.549 162.221 312.767 160.963 311.912 159.086C311.015 157.109 311.319 154.824 311.278 152.653C311.18 151.332 311.161 150.007 311.22 148.684C311.369 147.422 311.724 146.193 312.268 145.045C313.256 142.75 314.874 140.781 316.935 139.367C317.966 138.671 319.127 138.191 320.349 137.954C321.57 137.717 322.827 137.729 324.044 137.988C324.435 138.111 324.84 138.184 325.25 138.203C326.042 138.203 326.723 137.679 327.452 137.37C328.379 137.008 329.399 136.961 330.355 137.237C331.312 137.513 332.15 138.095 332.742 138.896C333.224 139.577 333.502 140.39 334.006 141.05C334.755 142.036 335.977 142.66 336.485 143.787C336.994 144.914 336.653 146.204 336.763 147.421C336.92 148.508 337.255 149.562 337.754 150.54C336.517 150.11 335.914 148.757 335.133 147.719C334.514 146.949 333.738 146.319 332.856 145.873C331.975 145.426 331.008 145.173 330.021 145.129C329.339 145.098 328.076 145.045 327.536 145.565C326.844 146.215 327.263 147.635 327.352 148.448Z" fill="#74585E"/>
<g opacity="0.1">
<path opacity="0.1" d="M339.191 165.147C339.128 165.068 339.096 165.021 339.096 165.021L339.191 165.147Z" fill="black"/>
<path opacity="0.1" d="M301.452 141.695C302.185 141.71 302.897 141.444 303.439 140.951L303.224 141.853C302.631 141.972 302.016 141.917 301.452 141.695Z" fill="black"/>
<path opacity="0.1" d="M340.963 166.3C346.547 174.872 333.974 175.496 333.974 175.496C333.016 175.629 332.041 175.559 331.112 175.292C331.691 175.36 332.277 175.36 332.857 175.292C332.857 175.292 346.332 174.626 339.191 165.163C339.656 165.709 340.273 166.105 340.963 166.3Z" fill="black"/>
<path opacity="0.1" d="M318.151 166.138C317.247 166.161 316.345 166.053 315.472 165.818C315.991 165.908 316.518 165.942 317.045 165.918C318.433 165.859 319.822 165.998 321.171 166.332C320.175 166.151 319.162 166.086 318.151 166.138Z" fill="black"/>
<path opacity="0.1" d="M290.29 153.654L296.529 138.277C296.78 138.618 297.049 138.946 297.337 139.257L291.407 153.854C288.733 160.318 292.298 162.546 292.298 162.546L310.795 179.486C317.926 182.16 318.817 196.201 318.817 196.201C321.716 201.548 317.48 223.17 317.48 223.17C320.29 228.072 324.207 230.51 328.438 231.517C323.787 230.725 319.425 228.277 316.379 222.945C316.379 222.945 320.615 201.328 317.716 195.975C317.716 195.975 316.825 181.935 309.694 179.261L291.181 162.347C291.181 162.347 287.616 160.119 290.29 153.654Z" fill="black"/>
<path opacity="0.1" d="M370.523 136.94C370.98 137.116 371.452 137.251 371.933 137.344C374.376 139.488 375.199 157.22 375.199 157.22L363.612 162.567C363.612 162.567 352.026 162.567 347.118 165.467C344.717 166.887 343.013 166.861 341.875 166.468C342.924 166.531 344.271 166.253 345.98 165.246C350.883 162.347 362.475 162.347 362.475 162.347L374.062 156.999C374.062 156.999 373.196 137.831 370.523 136.94Z" fill="black"/>
<path opacity="0.1" d="M372.468 137.433C374.161 137.653 376.489 137.406 377.433 134.712L377.957 136.101C376.494 138.177 373.82 137.794 372.468 137.433Z" fill="black"/>
</g>
<path opacity="0.1" d="M353.583 212.527C353.934 206.524 354.254 199.53 354.254 193.993C354.254 181.735 362.275 176.833 362.275 176.833L376.153 168.308C368.079 170.405 357.337 174.018 356.372 178.27C354.799 185.18 351.915 185.846 353.027 197.669C353.488 202.607 353.673 207.568 353.583 212.527Z" fill="black"/>
<path opacity="0.1" d="M351.465 229.54C351.465 229.54 349.457 235.779 355.03 239.79L351.465 229.54Z" fill="black"/>
<path opacity="0.1" d="M320.264 229.54C320.264 229.54 319.593 234.222 316.919 236.005L320.264 229.54Z" fill="black"/>
<path opacity="0.1" d="M348.906 319.247C348.906 319.247 359.602 324.149 368.74 325.486C373.375 326.162 375.084 324.778 375.351 323.31C375.655 325.024 374.303 327.195 368.74 326.377C359.602 325.04 348.906 320.138 348.906 320.138C348.838 319.397 348.813 318.653 348.833 317.91C348.848 318.722 348.906 319.247 348.906 319.247Z" fill="black"/>
<path opacity="0.1" d="M304.331 323.923C313.023 323.032 319.488 316.122 319.488 316.122C319.488 316.122 319.158 310.848 317.574 307.476C319.352 310.806 319.713 316.568 319.713 316.568C319.713 316.568 313.249 323.478 304.556 324.369C300.115 324.825 298.175 323.593 297.698 322.272C298.427 323.41 300.398 324.327 304.331 323.923Z" fill="black"/>
<path d="M314.785 95.4002C314.783 100.058 316.435 104.565 319.446 108.118C322.457 111.672 326.632 114.041 331.227 114.803C335.822 115.566 340.538 114.673 344.536 112.282C348.533 109.892 351.552 106.16 353.055 101.752C354.558 97.3434 354.447 92.5445 352.742 88.2102C351.037 83.8758 347.848 80.2876 343.745 78.0848C339.641 75.8819 334.888 75.2075 330.334 76.1818C325.779 77.156 321.718 79.7155 318.875 83.4044C316.225 86.842 314.787 91.0598 314.785 95.4002Z" fill="url(#paint2_linear_58_12)"/>
<path d="M315.509 95.4002C315.502 99.8887 317.09 104.234 319.989 107.661C322.887 111.088 326.909 113.374 331.336 114.112C335.764 114.85 340.309 113.992 344.163 111.691C348.017 109.39 350.928 105.795 352.378 101.547C353.828 97.299 353.723 92.6743 352.081 88.4969C350.438 84.3196 347.366 80.8611 343.412 78.7379C339.457 76.6147 334.877 75.9647 330.488 76.9039C326.099 77.843 322.186 80.3102 319.446 83.8658C316.898 87.1716 315.514 91.2266 315.509 95.4002Z" fill="#E0E0E0"/>
<path d="M323.834 86.094V93.4446" stroke="#535461" stroke-miterlimit="10"/>
<path d="M337.875 92.7892L330.204 97.8539" stroke="#535461" stroke-miterlimit="10"/>
<path d="M330.204 81.5274L339.186 85.2814" stroke="#535461" stroke-miterlimit="10"/>
<path d="M345.225 94.0947L344.733 105.524" stroke="#535461" stroke-miterlimit="10"/>
<path d="M339.186 108.953L329.062 103.894" stroke="#535461" stroke-miterlimit="10"/>
<path d="M323.834 104.712V111.092" stroke="#535461" stroke-miterlimit="10"/>
<path d="M320.08 99.8095L315.666 97.8539" stroke="#535461" stroke-miterlimit="10"/>
<path d="M344.733 84.626L344.397 79.2835" stroke="#535461" stroke-miterlimit="10"/>
<path d="M347.674 90.8336L353.148 92.396" stroke="#535461" stroke-miterlimit="10"/>
<path d="M349.142 90.8336L344.9 83.483L337.88 84.626V92.7892L345.388 96.7109L349.142 90.8336Z" fill="#FF4B00"/>
<path d="M319.446 83.8448L323.84 86.094C325.308 84.1332 331.347 81.8473 331.347 81.8473L330.718 76.8298C326.237 77.7294 322.232 80.2214 319.446 83.8448Z" fill="#FF4B00"/>
<path d="M331.347 97.036L323.672 93.4446L319.425 99.4845L323.834 106.505L331.347 105.362V97.036Z" fill="#FF4B00"/>
<path d="M337.875 107.973V114.007C340.334 113.555 342.679 112.62 344.775 111.257C346.87 109.894 348.675 108.129 350.086 106.064L344.733 103.868L337.875 107.973Z" fill="#FF4B00"/>
</g>
<defs>
<linearGradient id="paint0_linear_58_12" x1="200.316" y1="150.367" x2="200.316" y2="150.236" gradientUnits="userSpaceOnUse">
<stop stop-color="#808080" stop-opacity="0.25"/>
<stop offset="0.54" stop-color="#808080" stop-opacity="0.12"/>
<stop offset="1" stop-color="#808080" stop-opacity="0.1"/>
</linearGradient>
<linearGradient id="paint1_linear_58_12" x1="52292.3" y1="138781" x2="52292.3" y2="58416.3" gradientUnits="userSpaceOnUse">
<stop stop-color="#808080" stop-opacity="0.25"/>
<stop offset="0.54" stop-color="#808080" stop-opacity="0.12"/>
<stop offset="1" stop-color="#808080" stop-opacity="0.1"/>
</linearGradient>
<linearGradient id="paint2_linear_58_12" x1="20695.3" y1="10693.1" x2="20695.3" y2="7743.93" gradientUnits="userSpaceOnUse">
<stop stop-color="#808080" stop-opacity="0.25"/>
<stop offset="0.54" stop-color="#808080" stop-opacity="0.12"/>
<stop offset="1" stop-color="#808080" stop-opacity="0.1"/>
</linearGradient>
<clipPath id="clip0_58_12">
<rect width="600" height="418.857" fill="white"/>
</clipPath>
</defs>
</svg>
