<svg width="200" height="203" viewBox="0 0 200 203" fill="none" xmlns="http://www.w3.org/2000/svg">
<path d="M185.402 109.667C185.402 160.864 143.898 202.368 92.7017 202.368C41.5041 202.368 0 160.864 0 109.667C0 58.4693 41.5041 16.9652 92.7017 16.9652C143.898 16.9652 185.402 58.4693 185.402 109.667Z" fill="#FF4B00"/>
<path d="M173.943 119.814C173.099 119.887 171.856 119.973 170.275 120.126C168.687 120.228 166.79 120.562 164.602 120.916C162.398 121.208 159.972 121.833 157.308 122.465C156.636 122.607 155.967 122.811 155.287 123.021C154.604 123.23 153.908 123.441 153.201 123.657C152.492 123.866 151.778 124.101 151.047 124.332C150.328 124.591 149.609 124.882 148.872 125.163C148.813 125.184 148.753 125.206 148.694 125.229C148.263 125.394 147.798 125.443 147.343 125.367C146.924 125.296 146.482 125.22 146.021 125.141C145.559 125.066 145.08 124.909 144.582 124.791C143.592 124.504 142.5 124.325 141.386 123.902C140.266 123.514 139.06 123.173 137.854 122.616C137.244 122.363 136.62 122.105 135.978 121.84C135.344 121.565 134.718 121.227 134.068 120.914C131.456 119.667 128.808 117.973 126.09 116.109C124.779 115.099 123.377 114.148 122.079 112.993C121.746 112.713 121.412 112.433 121.078 112.152C120.741 111.872 120.4 111.596 120.083 111.287C119.435 110.684 118.78 110.075 118.122 109.463C115.693 107.05 113.253 104.483 111.05 101.644C111.012 101.594 111.009 101.52 111.05 101.471C113.571 98.1846 116.199 95.1487 118.89 92.4527C121.589 89.7676 124.302 87.3805 126.928 85.322C129.564 83.276 132.088 81.5213 134.391 80.063C136.7 78.6138 138.768 77.4257 140.502 76.4942C142.239 75.5736 143.621 74.8668 144.575 74.4106C144.724 74.3391 144.645 74.1506 144.489 74.203C143.487 74.5429 142.01 75.041 140.17 75.7866C138.333 76.5302 136.11 77.4813 133.647 78.7567C131.175 80.0184 128.442 81.571 125.604 83.4956C122.756 85.4085 119.784 87.6699 116.869 90.3291C116.069 91.0518 115.271 91.8013 114.478 92.5777C111.466 95.5262 106.378 95.3971 104.32 91.7188L103.589 90.4783C103.355 90.0609 103.142 89.6301 102.917 89.208C102.479 88.3559 102.021 87.5117 101.597 86.6569C100.819 84.9132 99.9531 83.2145 99.2948 81.4418C98.5532 79.7043 97.9811 77.9227 97.3678 76.1742C97.0644 75.2994 96.8506 74.4059 96.5882 73.5291C96.3396 72.6512 96.0694 71.7834 95.8935 70.9024C95.6915 70.0245 95.4918 69.1559 95.2936 68.2937C95.1241 67.4279 94.9996 66.5633 94.8437 65.7092C94.4948 64.007 94.4028 62.3154 94.1921 60.6731C94.0907 59.8508 94.097 59.0367 94.0445 58.2355C94.0155 57.4324 93.9427 56.6398 93.9493 55.8625C93.9576 55.0833 93.9646 54.3166 93.9724 53.5663C93.9752 53.1884 93.9807 52.8149 93.9838 52.4448C93.9936 52.0752 94.0382 51.7133 94.0633 51.3503C94.1228 50.6287 94.1792 49.9207 94.236 49.2288C94.2677 48.885 94.283 48.5388 94.3288 48.202C94.3773 47.8668 94.4259 47.536 94.4756 47.209C94.5692 46.5527 94.6612 45.9125 94.7489 45.2902C94.7944 44.9781 94.8382 44.67 94.8809 44.3657C94.9467 44.0685 95.0117 43.7752 95.0744 43.4858C95.3328 42.324 95.5732 41.2382 95.7949 40.2322C96.0835 39.2411 96.3497 38.3314 96.5882 37.5095C96.7104 37.0948 96.8259 36.704 96.9332 36.3363C97.0655 35.9777 97.1897 35.6417 97.306 35.3284C97.3235 35.2743 97.353 35.2251 97.3884 35.1806C100.389 31.4167 103.457 28.0054 106.469 24.9609C109.983 21.385 113.462 18.3589 116.61 15.7544C118.214 14.4889 119.69 13.2652 121.126 12.2283C122.553 11.1804 123.838 10.1725 125.068 9.36306C126.28 8.52743 127.363 7.77872 128.304 7.12948C129.268 6.51 130.087 5.98332 130.752 5.55689C130.869 5.48218 130.768 5.30667 130.646 5.37089C129.944 5.73976 129.079 6.19399 128.062 6.72811C127.061 7.29159 125.921 7.95964 124.643 8.70833C123.348 9.4308 121.989 10.3455 120.475 11.2959C118.945 12.2243 117.398 13.3854 115.697 14.5625C114.838 15.142 114.007 15.8112 113.128 16.4722C112.261 17.1473 111.34 17.8071 110.446 18.5476C109.553 19.2932 108.638 20.0579 107.7 20.8391C106.758 21.6176 105.861 22.4873 104.907 23.3355C101.142 26.7829 97.2641 30.7614 93.5578 35.3167C89.8428 39.8563 86.2528 44.9331 83.0575 50.4943C79.8556 56.0485 76.9308 62.0209 74.5391 68.3195C72.1152 74.6024 70.1905 81.1806 68.6653 87.8379C67.173 94.5026 66.1811 101.268 65.5311 107.942C65.3522 109.611 65.2519 111.279 65.1188 112.936C65.0405 114.594 64.9328 116.245 64.8874 117.886C64.7691 121.169 64.7413 124.411 64.7777 127.6C64.8325 133.976 65.2836 140.125 65.8651 145.928C66.4486 151.733 67.276 157.185 68.1688 162.187C69.0573 167.193 70.066 171.742 71.0454 175.745C72.0216 179.754 73.008 183.213 73.862 186.044C74.7129 188.877 75.4804 191.072 76.0032 192.567C76.0482 192.694 76.2387 192.636 76.2048 192.506C75.8031 190.976 75.2705 188.719 74.6146 185.846C73.9662 182.97 73.257 179.464 72.5087 175.433C72.2993 174.277 72.0909 173.075 71.8841 171.833C71.7697 171.144 72.8236 170.735 73.2782 171.264C74.0425 172.203 74.978 173.082 76.0008 173.927C76.5267 174.328 77.062 174.745 77.6427 175.103C78.2054 175.489 78.8096 175.82 79.4213 176.149C80.654 176.786 81.956 177.33 83.2882 177.756C84.4667 178.109 85.325 179.153 85.387 180.382C85.3941 180.521 85.4012 180.66 85.4086 180.797C85.5397 183.556 85.7629 185.953 85.9689 187.924C86.1686 189.895 86.4016 191.435 86.5528 192.484C86.6373 193.006 86.702 193.407 86.7446 193.678C86.7601 193.773 86.771 193.846 86.7814 193.908C86.7832 193.918 86.7833 193.929 86.784 193.94C86.7847 193.949 86.7865 193.958 86.7904 193.967C86.7907 193.967 86.7908 193.968 86.7909 193.969C86.7911 193.971 86.792 193.974 86.7927 193.977C86.7931 193.979 86.7947 193.98 86.7949 193.978C86.7951 193.976 86.7976 193.975 86.7988 193.976C86.8003 193.978 86.802 193.98 86.8042 193.981C86.8066 193.982 86.8092 193.98 86.8091 193.977C86.8072 193.908 86.8049 193.807 86.803 193.672C86.7971 193.399 86.7885 192.993 86.7775 192.464C86.7486 191.406 86.7454 189.855 86.7446 187.885C86.7505 185.916 86.8092 183.524 86.9036 180.787C86.9265 180.197 86.9526 179.591 86.9824 178.97C86.991 178.792 87.1516 178.668 87.3277 178.693C87.9997 178.804 88.67 178.878 89.3322 178.931C89.9944 178.987 90.6475 179.027 91.2905 179.029C93.8612 179.083 96.2362 178.78 98.2207 178.359C99.2118 178.137 100.108 177.898 100.889 177.641C101.42 177.473 101.953 177.954 101.815 178.493C101.32 180.431 100.945 182.258 100.633 183.915C100.242 186.101 99.9852 188.017 99.8372 189.6C99.668 191.179 99.623 192.429 99.5932 193.277C99.5879 193.431 99.7872 193.452 99.8172 193.301C99.9691 192.471 100.24 191.259 100.604 189.729C100.956 188.196 101.485 186.359 102.086 184.265C102.419 183.225 102.742 182.111 103.158 180.961C103.355 180.383 103.558 179.791 103.765 179.186C103.986 178.585 104.213 177.97 104.442 177.343C105.401 174.846 106.513 172.175 107.832 169.425C109.118 166.66 110.691 163.857 112.387 161.016C113.272 159.615 114.142 158.177 115.135 156.794C116.071 155.373 117.136 154.021 118.175 152.635C118.68 151.93 119.269 151.288 119.822 150.616C120.39 149.955 120.928 149.264 121.516 148.616C122.111 147.973 122.707 147.329 123.303 146.686C123.604 146.365 123.896 146.037 124.202 145.723L125.152 144.808L127.036 142.969C127.675 142.367 128.356 141.812 129.01 141.232C129.68 140.67 130.313 140.064 131.003 139.532C131.691 138.997 132.377 138.463 133.06 137.932C135.807 135.825 138.664 133.952 141.512 132.265C141.865 132.053 142.211 131.828 142.569 131.628C142.931 131.435 143.293 131.245 143.653 131.055C144.374 130.676 145.083 130.297 145.785 129.914C146.135 129.725 146.485 129.535 146.833 129.346C147.178 129.157 147.544 129.011 147.896 128.842C148.605 128.514 149.306 128.188 149.997 127.871C150.69 127.554 151.368 127.227 152.05 126.93C152.739 126.66 153.423 126.401 154.088 126.13C154.757 125.86 155.411 125.594 156.056 125.336C156.699 125.07 157.334 124.814 157.973 124.619C160.515 123.8 162.82 122.915 164.939 122.381C167.045 121.809 168.868 121.206 170.412 120.896C171.947 120.547 173.15 120.236 173.975 120.039C174.11 120.005 174.083 119.804 173.943 119.814ZM86.7834 193.907C86.7852 193.907 86.7815 193.91 86.781 193.908C86.7809 193.908 86.7809 193.908 86.7809 193.908C86.7806 193.907 86.7823 193.908 86.7834 193.907ZM78.086 69.6599C78.6843 68.1378 79.2353 66.6009 79.8892 65.1168C80.1994 64.37 80.5095 63.6225 80.8188 62.8781C81.1348 62.1364 81.4806 61.4116 81.8088 60.679C82.1455 59.9502 82.4631 59.2168 82.8108 58.501C83.166 57.7883 83.5184 57.0764 83.8712 56.3677C84.5522 54.938 85.3295 53.573 86.0652 52.1993C88.5653 47.6908 91.2542 43.448 94.0749 39.5408C94.2841 39.251 94.7072 39.5003 94.5594 39.8257C94.1757 40.809 93.8244 41.8964 93.414 43.0504C92.6595 45.3787 91.955 48.0697 91.5016 51.07C91.4417 51.4435 91.3598 51.8206 91.3144 52.2032C91.2744 52.5897 91.2337 52.9785 91.193 53.3693C91.1123 54.1556 91.0313 54.9568 90.9479 55.7721C90.857 56.5893 90.8848 57.4214 90.8488 58.2684C90.841 59.1142 90.7771 59.9773 90.8163 60.847C90.8558 61.719 90.8962 62.6024 90.9357 63.4964C90.9577 64.3939 91.0657 65.2926 91.1711 66.2034C91.2756 67.1127 91.361 68.0395 91.502 68.9629C91.668 69.8835 91.8352 70.8131 92.0028 71.7505C92.7484 75.4823 93.779 79.3034 95.2412 83.0273C95.9092 84.9151 96.7632 86.7426 97.5895 88.5897C98.0327 89.499 98.5089 90.3937 98.9682 91.2983C99.204 91.7478 99.4264 92.2048 99.6719 92.6484L100.437 93.9657C101.632 96.064 102.948 98.089 104.348 100.038C105.321 101.391 105.338 103.214 104.384 104.581C103.748 105.492 103.126 106.419 102.517 107.36C101.917 108.309 101.332 109.272 100.762 110.247C98.478 114.155 96.43 118.277 94.6514 122.507C94.6208 122.584 94.5233 122.604 94.467 122.543C92.7324 120.688 91.0501 118.743 89.4849 116.701C87.7463 114.416 86.1467 112.025 84.6646 109.613C83.2322 107.171 81.9082 104.713 80.7531 102.265C80.1986 101.033 79.6382 99.823 79.1484 98.6138C78.8997 98.0108 78.6554 97.4124 78.4122 96.8219C78.1925 96.2224 77.9744 95.6307 77.7594 95.0461C76.9136 92.7029 76.2252 90.4435 75.6237 88.341C75.3559 87.2803 75.0982 86.2633 74.8547 85.2961C74.6373 84.3207 74.4106 83.3973 74.2309 82.5226C74.1655 82.1906 74.1817 81.8478 74.2705 81.5213C75.3675 77.4877 76.6268 73.5152 78.086 69.6599ZM69.3013 108.316C69.9822 101.784 70.9949 95.1824 72.495 88.6939C72.6055 88.1992 73.3397 88.2318 73.4068 88.7342C73.4104 88.7612 73.414 88.7882 73.4176 88.8153C73.6145 89.9215 73.8142 91.0798 74.0558 92.2717C74.3343 93.4547 74.5978 94.6886 74.9655 95.9291C75.6194 98.4372 76.5158 101.026 77.5617 103.661C78.1146 104.967 78.6726 106.297 79.3285 107.604C79.937 108.933 80.6669 110.222 81.3757 111.536C82.8598 114.125 84.5447 116.656 86.3668 119.085C88.2326 121.483 90.2446 123.768 92.3709 125.871C92.8074 126.287 92.9557 126.921 92.7523 127.488C91.8082 130.123 90.9547 132.777 90.2007 135.428C88.9543 139.757 88.0529 144.099 87.3042 148.307C87.1821 148.992 86.3906 149.312 85.8526 148.871C85.1384 148.286 84.4417 147.674 83.7647 147.038C82.2994 145.69 80.93 144.231 79.6695 142.707C78.4161 141.18 77.221 139.63 76.1704 138.043C75.6147 137.272 75.1515 136.455 74.6385 135.691C74.1702 134.899 73.6838 134.14 73.2594 133.368C72.8177 132.605 72.3987 131.856 72.0118 131.12C71.6061 130.393 71.2435 129.673 70.8946 128.98C70.5289 128.295 70.2136 127.622 69.9023 126.983C69.5805 126.349 69.2989 125.736 69.0315 125.161C68.5448 124.137 68.3166 123.01 68.3578 121.877C68.52 117.419 68.8293 112.884 69.3013 108.316ZM84.4778 174.015C83.3089 173.663 82.1905 173.2 81.1004 172.73C80.0204 172.231 78.9941 171.682 78.0261 171.092C77.0824 170.477 76.1653 169.862 75.3712 169.177C74.9514 168.858 74.5849 168.5 74.2148 168.164C73.8291 167.841 73.5202 167.473 73.181 167.146C72.5389 166.468 71.9601 165.811 71.4851 165.195C70.9481 164.564 70.6511 163.769 70.5371 162.949C70.4863 162.583 70.4357 162.216 70.3852 161.845C69.743 156.849 69.185 151.422 68.7742 145.679C68.4388 140.65 68.2417 135.374 68.2257 129.934C68.2247 129.62 68.6896 129.552 68.7887 129.85C69.0322 130.609 69.3075 131.397 69.6137 132.204C69.9063 133.018 70.2555 133.84 70.6154 134.689C70.9584 135.544 71.3986 136.385 71.8042 137.266C72.022 137.7 72.2522 138.134 72.4848 138.571C72.7135 139.014 72.9571 139.452 73.2155 139.888C74.2117 141.65 75.3876 143.4 76.701 145.094C77.9971 146.802 79.4937 148.41 81.091 149.912C82.7035 151.396 84.4233 152.783 86.2587 153.933C86.3615 154.007 86.423 154.124 86.4069 154.25C86.1338 156.386 85.9159 158.483 85.7406 160.519C85.3925 164.414 85.2531 168.108 85.2183 171.513C85.2076 172.177 85.2032 172.828 85.2041 173.467C85.2046 173.845 84.8378 174.13 84.4778 174.015ZM107.077 163.798C106.397 165.311 105.72 166.781 105.156 168.255C104.55 169.708 104.039 171.153 103.557 172.553C103.31 173.25 103.118 173.952 102.903 174.632C102.631 175.527 101.811 176.151 100.876 176.15C100.802 176.149 100.728 176.149 100.653 176.149C99.8618 176.152 98.9706 176.132 98.0104 176.105C97.0491 176.06 96.0141 176.022 94.9299 175.927C93.8432 175.85 92.708 175.723 91.547 175.567C90.3848 175.417 89.2022 175.194 88.0122 174.952C87.5586 174.854 87.2529 174.425 87.2854 173.962C87.3391 173.197 87.3964 172.415 87.4593 171.618C87.7373 168.268 88.1375 164.65 88.6442 160.841C88.8216 159.54 89.0237 158.213 89.2428 156.871C89.3334 156.315 89.9352 156.024 90.4502 156.251C90.9275 156.462 91.4033 156.67 91.8743 156.877C93.7798 157.642 95.6672 158.252 97.4916 158.657C97.9439 158.776 98.3989 158.847 98.8425 158.933C99.2878 159.015 99.722 159.11 100.156 159.167C101.027 159.265 101.855 159.417 102.664 159.455C104.274 159.589 105.747 159.61 107.048 159.568C107.699 159.536 108.304 159.527 108.865 159.476C109.044 159.457 109.17 159.652 109.083 159.809C108.77 160.384 108.488 160.973 108.186 161.544C107.808 162.301 107.401 163.035 107.077 163.798ZM121.397 142.987C121.078 143.322 120.771 143.667 120.458 144.006C119.836 144.689 119.213 145.369 118.592 146.05C117.977 146.734 117.421 147.464 116.839 148.172C116.273 148.891 115.67 149.577 115.154 150.328C114.621 151.063 114.091 151.796 113.564 152.524C113.022 153.245 112.577 154.024 112.083 154.765C111.613 155.52 111.102 156.241 110.677 157.01C110.556 157.222 110.435 157.433 110.315 157.644C110.029 158.143 109.469 158.42 108.899 158.344C108.358 158.256 107.773 158.163 107.148 158.062C105.904 157.854 104.513 157.584 103.023 157.22C102.272 157.058 101.511 156.817 100.717 156.609C99.935 156.357 99.119 156.127 98.3037 155.826C96.6626 155.264 94.9949 154.533 93.3107 153.716C93.1133 153.616 92.9162 153.515 92.7195 153.411C91.1155 152.564 90.3324 150.731 90.6914 148.953C91.5235 144.856 92.6144 140.68 93.8381 136.484C94.2073 135.233 94.6001 133.984 95.0141 132.738C95.5692 131.067 97.6628 130.476 99.0583 131.55C101.376 133.206 103.7 134.679 106.004 135.886C106.568 136.209 107.145 136.489 107.714 136.765C108.28 137.041 108.838 137.317 109.391 137.573C110.523 138.037 111.6 138.512 112.659 138.904C113.19 139.094 113.711 139.282 114.22 139.463C114.726 139.647 115.222 139.827 115.72 139.956C116.712 140.23 117.636 140.533 118.526 140.739C119.417 140.944 120.243 141.15 121.015 141.313C121.443 141.386 121.848 141.455 122.234 141.52C122.47 141.56 122.561 141.852 122.389 142.019L121.397 142.987ZM139.813 129.224C136.772 130.857 133.705 132.714 130.782 134.879C130.054 135.423 129.324 135.969 128.589 136.517C127.85 137.06 127.18 137.692 126.473 138.281C125.778 138.885 125.06 139.467 124.384 140.094L123.586 140.864C123.518 140.929 123.418 140.951 123.329 140.919C122.722 140.71 122.051 140.478 121.321 140.224C120.602 139.93 119.82 139.64 118.989 139.317C117.339 138.641 115.513 137.812 113.56 136.849C112.586 136.365 111.602 135.798 110.573 135.241C109.582 134.615 108.509 134.062 107.479 133.366C106.961 133.027 106.435 132.682 105.903 132.333C105.377 131.976 104.864 131.587 104.336 131.21C103.269 130.467 102.248 129.619 101.178 128.801C100.422 128.172 99.6694 127.523 98.9214 126.854C98.1248 126.142 97.8598 124.998 98.2763 124.014C99.9593 119.919 101.885 115.924 104.045 112.145C105.199 110.145 106.39 108.188 107.632 106.3C108 105.741 108.803 105.701 109.234 106.214C109.909 106.936 110.585 107.655 111.255 108.369C111.909 109.097 112.624 109.761 113.322 110.43C113.672 110.763 114.021 111.095 114.37 111.425C114.714 111.756 115.064 112.082 115.434 112.383C116.161 113 116.882 113.606 117.596 114.212C118.301 114.824 119.074 115.343 119.8 115.9C121.245 117.025 122.78 117.965 124.237 118.918C127.236 120.701 130.178 122.211 133.033 123.26C133.746 123.527 134.427 123.816 135.119 124.046C135.814 124.253 136.494 124.458 137.156 124.657C138.469 125.084 139.772 125.296 140.969 125.559C141.569 125.688 142.147 125.814 142.72 125.869C143.289 125.935 143.837 126.002 144.363 126.063C144.892 126.114 145.389 126.201 145.88 126.212C145.95 126.215 145.969 126.314 145.904 126.341C143.892 127.19 141.856 128.15 139.813 129.224Z" fill="#161B15"/>
<path d="M95.1038 27.9484C122.164 12.5133 156.615 21.9375 172.052 49.0002C187.487 76.0612 178.062 110.512 151.002 125.947C123.939 141.383 89.4884 131.959 74.053 104.898C58.6166 77.8353 68.041 43.3848 95.1038 27.9484Z" fill="#F1F1EE"/>
<path d="M130.798 115.245C130.883 115.628 130.681 116.113 130.347 116.323L113.049 127.234C112.717 127.443 112.152 127.484 111.793 127.322L92.5187 118.619C92.1615 118.456 91.8165 118.006 91.7542 117.618L88.4985 97.4271C88.4367 97.0399 88.6654 96.5632 89.0062 96.3688L103.336 88.1953C103.677 88.0007 104.249 87.9738 104.607 88.1351L126.387 97.9689C126.744 98.1303 127.108 98.576 127.193 98.9601L130.798 115.245Z" fill="#FEFEFE"/>
<path d="M122.994 25.4811C123.38 25.4019 123.923 25.5651 124.201 25.8402L138.701 40.2624C138.981 40.5396 139.074 41.0582 138.909 41.4157L131.8 56.822C131.635 57.178 131.185 57.535 130.8 57.6147L107.4 62.4609C107.015 62.5409 106.466 62.3867 106.178 62.118L93.9967 50.7256C93.7094 50.4569 93.5955 49.9392 93.7395 49.5738L101.321 30.5794C101.467 30.2139 101.901 29.8502 102.285 29.7709L122.994 25.4811Z" fill="#F1F1EE"/>
<path d="M106.214 62.1802C106.501 62.449 106.699 62.9878 106.657 63.3781L104.034 87.1314C103.991 87.5212 103.677 88.001 103.336 88.1957L89.0061 96.3693C88.6655 96.5635 88.1383 96.5168 87.8355 96.2648L72.1145 83.1859C71.8119 82.9349 71.6002 82.4089 71.6418 82.0179L73.9623 60.9976C74.0055 60.6075 74.3274 60.1402 74.6774 59.9625L92.8738 50.6252C93.2248 50.4457 93.7449 50.5191 94.0317 50.7869L106.214 62.1802Z" fill="#F1F1EE"/>
<path d="M161.673 81.325C162.065 81.3656 162.464 81.7093 162.56 82.0905L167.592 101.912C167.689 102.294 167.552 102.844 167.288 103.135L153.053 118.776C152.789 119.067 152.255 119.256 151.866 119.195L131.658 116.052C131.271 115.99 130.882 115.628 130.798 115.244L127.193 98.9599C127.108 98.576 127.254 98.0249 127.52 97.7349L143.602 80.0596C143.867 79.7682 144.404 79.5638 144.795 79.6046L161.673 81.325Z" fill="#F1F1EE"/>
<path d="M138.945 41.4777C139.11 41.1218 139.565 40.8501 139.958 40.8754L160.366 42.2157C160.757 42.2414 161.239 42.5431 161.433 42.8828L171.91 61.2521C172.105 61.5941 172.119 62.161 171.943 62.5124L162.708 80.76C162.53 81.1114 162.065 81.3657 161.674 81.3251L144.795 79.6046C144.404 79.5638 143.924 79.2519 143.729 78.9099L131.89 58.1536C131.695 57.8121 131.67 57.24 131.835 56.8832L138.945 41.4777Z" fill="#FEFEFE"/>
<path d="M113.049 127.234C112.716 127.443 112.683 127.831 112.975 128.095L118.204 132.822C118.281 132.891 118.376 132.956 118.483 133.014C119.072 133.332 119.776 133.189 120.432 133.053L148.388 127.248C148.759 127.118 149.196 126.719 149.359 126.362L152.277 119.956C152.439 119.598 152.255 119.256 151.867 119.195L131.658 116.051C131.27 115.99 130.681 116.113 130.347 116.323L113.049 127.234ZM72.1141 83.1858C71.8115 82.9348 71.4334 83.0227 71.2727 83.3808L68.388 89.8268C68.2293 90.1812 68.1932 90.7711 68.3087 91.1466C68.3114 91.1554 68.3121 91.1575 68.3149 91.1662C68.4034 91.4428 71.2781 100.396 73.8967 104.987C76.5374 109.617 82.8702 116.735 82.9551 116.831C82.9577 116.834 82.9572 116.833 82.9598 116.836C83.2216 117.127 83.7525 117.4 84.1416 117.446L91.1579 118.243C91.5478 118.287 91.8163 118.007 91.7537 117.617L88.4985 97.427C88.4367 97.0399 88.1382 96.5165 87.8354 96.2645L72.1141 83.1858ZM131.89 58.1537C131.695 57.8123 131.219 57.5963 130.834 57.677L107.435 62.5222C107.05 62.6028 106.699 62.9874 106.657 63.3777L104.035 87.1328C103.99 87.521 104.249 87.9739 104.606 88.1352L126.387 97.9689C126.744 98.1303 127.255 98.025 127.52 97.7347L143.602 80.06C143.866 79.7682 143.924 79.2521 143.729 78.9101L131.89 58.1537ZM73.4415 50.6285C72.9806 51.1344 72.4868 51.6807 72.4683 52.3648C72.4652 52.4778 72.4728 52.5856 72.4924 52.681L73.899 59.5878C73.9774 59.9725 74.3275 60.1402 74.6773 59.9622L92.8745 50.6263C93.2246 50.4454 93.631 50.0014 93.7748 49.6357L101.356 30.6418C101.502 30.2762 101.301 29.944 100.91 29.9014L93.9121 29.1518C93.5209 29.1092 92.957 29.2831 92.6544 29.537L73.4415 50.6285ZM160.365 42.2158C160.757 42.2413 161.013 41.9489 160.931 41.5638L159.476 34.6516C159.394 34.2661 159.057 33.7824 158.724 33.574L131.788 21.4268C131.411 21.3155 130.822 21.385 130.479 21.5788L124.353 25.0487C124.01 25.2417 123.958 25.6267 124.236 25.9025L138.737 40.3257C139.017 40.6025 139.565 40.8503 139.957 40.8755L160.365 42.2158ZM167.592 101.913C167.689 102.294 168.047 102.446 168.388 102.25L174.493 98.7426C174.834 98.5459 175.192 98.0728 175.289 97.6932L178.546 68.3254C178.536 67.932 178.29 67.3943 178.001 67.1291L172.791 62.357C172.502 62.0914 172.119 62.1609 171.942 62.5124L162.707 80.7603C162.53 81.1116 162.464 81.7095 162.559 82.0904L167.592 101.913Z" fill="#161B15"/>
</svg>
